<mxfile host="app.diagrams.net" modified="2022-06-08T14:08:01.120Z" agent="5.0 (Windows NT 10.0; WOW64) AppleWebKit/537.36 (KHTML, like Gecko) Chrome/100.0.4896.60 Safari/537.36" etag="6QVrKgoeGbk9dZYHLqgF" version="19.0.2" type="github">
  <diagram id="C5RBs43oDa-KdzZeNtuy" name="Page-1">
    <mxGraphModel dx="1422" dy="762" grid="1" gridSize="10" guides="1" tooltips="1" connect="1" arrows="1" fold="1" page="1" pageScale="1" pageWidth="850" pageHeight="1100" math="0" shadow="0">
      <root>
        <mxCell id="WIyWlLk6GJQsqaUBKTNV-0" />
        <mxCell id="WIyWlLk6GJQsqaUBKTNV-1" parent="WIyWlLk6GJQsqaUBKTNV-0" />
        <mxCell id="zkfFHV4jXpPFQw0GAbJ--0" value="TackHammerController" style="swimlane;fontStyle=2;align=center;verticalAlign=top;childLayout=stackLayout;horizontal=1;startSize=26;horizontalStack=0;resizeParent=1;resizeLast=0;collapsible=1;marginBottom=0;rounded=0;shadow=0;strokeWidth=1;fillColor=#0050ef;strokeColor=#001DBC;fontColor=#ffffff;" parent="WIyWlLk6GJQsqaUBKTNV-1" vertex="1">
          <mxGeometry x="40" y="184" width="210" height="104" as="geometry">
            <mxRectangle x="230" y="140" width="160" height="26" as="alternateBounds" />
          </mxGeometry>
        </mxCell>
        <mxCell id="zkfFHV4jXpPFQw0GAbJ--1" value="getOrder()" style="text;align=left;verticalAlign=top;spacingLeft=4;spacingRight=4;overflow=hidden;rotatable=0;points=[[0,0.5],[1,0.5]];portConstraint=eastwest;fillColor=#d5e8d4;strokeColor=#82b366;gradientColor=#97d077;" parent="zkfFHV4jXpPFQw0GAbJ--0" vertex="1">
          <mxGeometry y="26" width="210" height="26" as="geometry" />
        </mxCell>
        <mxCell id="zkfFHV4jXpPFQw0GAbJ--2" value="updateOrderCustomerInformation()" style="text;align=left;verticalAlign=top;spacingLeft=4;spacingRight=4;overflow=hidden;rotatable=0;points=[[0,0.5],[1,0.5]];portConstraint=eastwest;rounded=0;shadow=0;html=0;fillColor=#d5e8d4;strokeColor=#82b366;gradientColor=#97d077;" parent="zkfFHV4jXpPFQw0GAbJ--0" vertex="1">
          <mxGeometry y="52" width="210" height="26" as="geometry" />
        </mxCell>
        <mxCell id="zkfFHV4jXpPFQw0GAbJ--3" value="updateCustomerValidationRequest()" style="text;align=left;verticalAlign=top;spacingLeft=4;spacingRight=4;overflow=hidden;rotatable=0;points=[[0,0.5],[1,0.5]];portConstraint=eastwest;rounded=0;shadow=0;html=0;fillColor=#d5e8d4;strokeColor=#82b366;gradientColor=#97d077;" parent="zkfFHV4jXpPFQw0GAbJ--0" vertex="1">
          <mxGeometry y="78" width="210" height="26" as="geometry" />
        </mxCell>
        <mxCell id="Pmj5LaugIKf1HsN2zF1F-2" value="TackHammerServiceImpl" style="swimlane;fontStyle=0;childLayout=stackLayout;horizontal=1;startSize=30;horizontalStack=0;resizeParent=1;resizeParentMax=0;resizeLast=0;collapsible=1;marginBottom=0;rounded=0;shadow=0;fontFamily=Helvetica;fontSize=12;fillColor=#a20025;html=0;strokeColor=#6F0000;fontColor=#ffffff;" parent="WIyWlLk6GJQsqaUBKTNV-1" vertex="1">
          <mxGeometry x="350" y="450" width="190" height="60" as="geometry">
            <mxRectangle x="350" y="80" width="140" height="30" as="alternateBounds" />
          </mxGeometry>
        </mxCell>
        <mxCell id="Pmj5LaugIKf1HsN2zF1F-3" value="getOrderDetails()" style="text;strokeColor=#d6b656;fillColor=#fff2cc;align=left;verticalAlign=middle;spacingLeft=4;spacingRight=4;overflow=hidden;points=[[0,0.5],[1,0.5]];portConstraint=eastwest;rotatable=0;rounded=0;shadow=0;fontFamily=Helvetica;fontSize=12;html=0;gradientColor=#ffd966;fontStyle=0" parent="Pmj5LaugIKf1HsN2zF1F-2" vertex="1">
          <mxGeometry y="30" width="190" height="30" as="geometry" />
        </mxCell>
        <mxCell id="Pmj5LaugIKf1HsN2zF1F-13" value="OrderServiceClientImpl" style="swimlane;fontStyle=0;childLayout=stackLayout;horizontal=1;startSize=30;horizontalStack=0;resizeParent=1;resizeParentMax=0;resizeLast=0;collapsible=1;marginBottom=0;rounded=0;shadow=0;fontFamily=Helvetica;fontSize=12;fillColor=#a20025;html=0;strokeColor=#6F0000;fontColor=#ffffff;" parent="WIyWlLk6GJQsqaUBKTNV-1" vertex="1">
          <mxGeometry x="350" y="150" width="210" height="60" as="geometry" />
        </mxCell>
        <mxCell id="Pmj5LaugIKf1HsN2zF1F-14" value="updateOrderCustomerInformation()" style="text;strokeColor=#d6b656;fillColor=#fff2cc;align=left;verticalAlign=middle;spacingLeft=4;spacingRight=4;overflow=hidden;points=[[0,0.5],[1,0.5]];portConstraint=eastwest;rotatable=0;rounded=0;shadow=0;fontFamily=Helvetica;fontSize=12;html=0;gradientColor=#ffd966;" parent="Pmj5LaugIKf1HsN2zF1F-13" vertex="1">
          <mxGeometry y="30" width="210" height="30" as="geometry" />
        </mxCell>
        <mxCell id="Pmj5LaugIKf1HsN2zF1F-21" value="CustomerValidationServiceClientImpl" style="swimlane;fontStyle=0;childLayout=stackLayout;horizontal=1;startSize=30;horizontalStack=0;resizeParent=1;resizeParentMax=0;resizeLast=0;collapsible=1;marginBottom=0;rounded=0;shadow=0;fontFamily=Helvetica;fontSize=12;fillColor=#a20025;html=0;strokeColor=#6F0000;fontColor=#ffffff;" parent="WIyWlLk6GJQsqaUBKTNV-1" vertex="1">
          <mxGeometry x="350" y="320" width="210" height="60" as="geometry" />
        </mxCell>
        <mxCell id="Pmj5LaugIKf1HsN2zF1F-22" value="updateCustomerValidationRequest()" style="text;strokeColor=#82b366;fillColor=#d5e8d4;align=left;verticalAlign=middle;spacingLeft=4;spacingRight=4;overflow=hidden;points=[[0,0.5],[1,0.5]];portConstraint=eastwest;rotatable=0;rounded=0;shadow=0;fontFamily=Helvetica;fontSize=12;html=0;gradientColor=#97d077;" parent="Pmj5LaugIKf1HsN2zF1F-21" vertex="1">
          <mxGeometry y="30" width="210" height="30" as="geometry" />
        </mxCell>
        <mxCell id="Pmj5LaugIKf1HsN2zF1F-32" value="" style="edgeStyle=orthogonalEdgeStyle;rounded=0;orthogonalLoop=1;jettySize=auto;html=1;fontFamily=Helvetica;fontSize=12;fontColor=default;entryX=0;entryY=0.75;entryDx=0;entryDy=0;strokeWidth=2;" parent="WIyWlLk6GJQsqaUBKTNV-1" source="zkfFHV4jXpPFQw0GAbJ--1" target="Pmj5LaugIKf1HsN2zF1F-2" edge="1">
          <mxGeometry relative="1" as="geometry" />
        </mxCell>
        <mxCell id="Pmj5LaugIKf1HsN2zF1F-33" value="" style="edgeStyle=orthogonalEdgeStyle;orthogonalLoop=1;jettySize=auto;html=1;fontFamily=Helvetica;fontSize=12;fontColor=default;strokeWidth=2;rounded=0;" parent="WIyWlLk6GJQsqaUBKTNV-1" source="zkfFHV4jXpPFQw0GAbJ--2" target="Pmj5LaugIKf1HsN2zF1F-14" edge="1">
          <mxGeometry relative="1" as="geometry">
            <Array as="points">
              <mxPoint x="300" y="249" />
              <mxPoint x="300" y="195" />
            </Array>
          </mxGeometry>
        </mxCell>
        <mxCell id="Pmj5LaugIKf1HsN2zF1F-41" style="edgeStyle=orthogonalEdgeStyle;rounded=0;orthogonalLoop=1;jettySize=auto;html=1;entryX=0;entryY=0.5;entryDx=0;entryDy=0;fontFamily=Helvetica;fontSize=12;fontColor=default;exitX=1;exitY=0.5;exitDx=0;exitDy=0;strokeWidth=2;" parent="WIyWlLk6GJQsqaUBKTNV-1" source="zkfFHV4jXpPFQw0GAbJ--3" target="Pmj5LaugIKf1HsN2zF1F-22" edge="1">
          <mxGeometry relative="1" as="geometry">
            <mxPoint x="330" y="290" as="sourcePoint" />
          </mxGeometry>
        </mxCell>
        <mxCell id="Pmj5LaugIKf1HsN2zF1F-42" value="&lt;b&gt;GET&amp;nbsp;&lt;/b&gt;&lt;a style=&quot;color: rgb(0, 82, 204); text-decoration: var(--aui-link-hover-decoration); font-family: -apple-system, BlinkMacSystemFont, &amp;quot;Segoe UI&amp;quot;, Roboto, Oxygen, Ubuntu, &amp;quot;Fira Sans&amp;quot;, &amp;quot;Droid Sans&amp;quot;, &amp;quot;Helvetica Neue&amp;quot;, sans-serif; font-size: 14px; text-align: left;&quot; rel=&quot;nofollow&quot; class=&quot;external-link&quot; title=&quot;&quot; href=&quot;https://uops-app.api.ulinedm.com/uops-app/swagger/index.html?url=https://dc2-svzdev04.ulinedm.com:11175/order-service/v1/v3/api-docs#/order-shipment-controller/getOrderAndShipments&quot;&gt;/order-service/v1/orders-and-shipments/{orderNumber}&lt;/a&gt;&lt;br&gt;&lt;b&gt;&amp;nbsp;&lt;br&gt;&amp;nbsp;&lt;/b&gt;" style="shape=cylinder3;whiteSpace=wrap;html=1;boundedLbl=1;backgroundOutline=1;size=15;rounded=0;shadow=0;fontFamily=Helvetica;fontSize=12;fillColor=#d5e8d4;gradientColor=#97d077;strokeColor=#82b366;" parent="WIyWlLk6GJQsqaUBKTNV-1" vertex="1">
          <mxGeometry x="720" y="20" width="440" height="70" as="geometry" />
        </mxCell>
        <mxCell id="Pmj5LaugIKf1HsN2zF1F-65" style="edgeStyle=orthogonalEdgeStyle;rounded=0;orthogonalLoop=1;jettySize=auto;html=1;entryX=0;entryY=0.5;entryDx=0;entryDy=0;entryPerimeter=0;fontFamily=Helvetica;fontSize=12;fontColor=default;strokeColor=#000000;strokeWidth=2;" parent="WIyWlLk6GJQsqaUBKTNV-1" source="Pmj5LaugIKf1HsN2zF1F-43" target="Pmj5LaugIKf1HsN2zF1F-55" edge="1">
          <mxGeometry relative="1" as="geometry" />
        </mxCell>
        <mxCell id="Pmj5LaugIKf1HsN2zF1F-43" value="getCustomerValidationRequest()" style="text;strokeColor=#82b366;fillColor=#d5e8d4;align=left;verticalAlign=middle;spacingLeft=4;spacingRight=4;overflow=hidden;points=[[0,0.5],[1,0.5]];portConstraint=eastwest;rotatable=0;rounded=0;shadow=0;fontFamily=Helvetica;fontSize=12;html=0;gradientColor=#97d077;" parent="WIyWlLk6GJQsqaUBKTNV-1" vertex="1">
          <mxGeometry x="350" y="380" width="210" height="30" as="geometry" />
        </mxCell>
        <mxCell id="Pmj5LaugIKf1HsN2zF1F-44" style="edgeStyle=orthogonalEdgeStyle;rounded=0;orthogonalLoop=1;jettySize=auto;html=1;entryX=1;entryY=0.5;entryDx=0;entryDy=0;fontFamily=Helvetica;fontSize=12;fontColor=default;strokeWidth=2;" parent="WIyWlLk6GJQsqaUBKTNV-1" source="Pmj5LaugIKf1HsN2zF1F-3" target="Pmj5LaugIKf1HsN2zF1F-43" edge="1">
          <mxGeometry relative="1" as="geometry" />
        </mxCell>
        <mxCell id="Pmj5LaugIKf1HsN2zF1F-51" style="edgeStyle=orthogonalEdgeStyle;rounded=0;orthogonalLoop=1;jettySize=auto;html=1;entryX=0;entryY=0.5;entryDx=0;entryDy=0;entryPerimeter=0;fontFamily=Helvetica;fontSize=12;fontColor=default;strokeWidth=2;" parent="WIyWlLk6GJQsqaUBKTNV-1" source="Pmj5LaugIKf1HsN2zF1F-45" target="Pmj5LaugIKf1HsN2zF1F-42" edge="1">
          <mxGeometry relative="1" as="geometry">
            <mxPoint x="570" y="270" as="sourcePoint" />
            <Array as="points">
              <mxPoint x="595" y="230" />
              <mxPoint x="595" y="145" />
              <mxPoint x="660" y="145" />
              <mxPoint x="660" y="50" />
              <mxPoint x="710" y="50" />
              <mxPoint x="710" y="55" />
            </Array>
          </mxGeometry>
        </mxCell>
        <mxCell id="Pmj5LaugIKf1HsN2zF1F-45" value="getOrder()" style="text;strokeColor=#82b366;fillColor=#d5e8d4;align=left;verticalAlign=middle;spacingLeft=4;spacingRight=4;overflow=hidden;points=[[0,0.5],[1,0.5]];portConstraint=eastwest;rotatable=0;rounded=0;shadow=0;fontFamily=Helvetica;fontSize=12;html=0;gradientColor=#97d077;gradientDirection=south;" parent="WIyWlLk6GJQsqaUBKTNV-1" vertex="1">
          <mxGeometry x="350" y="210" width="210" height="30" as="geometry" />
        </mxCell>
        <mxCell id="Pmj5LaugIKf1HsN2zF1F-46" style="edgeStyle=orthogonalEdgeStyle;rounded=0;orthogonalLoop=1;jettySize=auto;html=1;entryX=1;entryY=0.5;entryDx=0;entryDy=0;fontFamily=Helvetica;fontSize=12;fontColor=default;strokeWidth=2;" parent="WIyWlLk6GJQsqaUBKTNV-1" source="Pmj5LaugIKf1HsN2zF1F-3" target="Pmj5LaugIKf1HsN2zF1F-45" edge="1">
          <mxGeometry relative="1" as="geometry" />
        </mxCell>
        <mxCell id="Pmj5LaugIKf1HsN2zF1F-47" value="CustomerLuwServiceClientImpl" style="swimlane;fontStyle=0;childLayout=stackLayout;horizontal=1;startSize=30;horizontalStack=0;resizeParent=1;resizeParentMax=0;resizeLast=0;collapsible=1;marginBottom=0;rounded=0;shadow=0;fontFamily=Helvetica;fontSize=12;fillColor=#a20025;gradientDirection=south;html=0;strokeColor=#6F0000;fontColor=#ffffff;" parent="WIyWlLk6GJQsqaUBKTNV-1" vertex="1">
          <mxGeometry x="380" y="20" width="210" height="60" as="geometry" />
        </mxCell>
        <mxCell id="Pmj5LaugIKf1HsN2zF1F-48" value="getShipTosByCustomerId()" style="text;strokeColor=#82b366;fillColor=#d5e8d4;align=left;verticalAlign=middle;spacingLeft=4;spacingRight=4;overflow=hidden;points=[[0,0.5],[1,0.5]];portConstraint=eastwest;rotatable=0;rounded=0;shadow=0;fontFamily=Helvetica;fontSize=12;html=0;gradientColor=#97d077;" parent="Pmj5LaugIKf1HsN2zF1F-47" vertex="1">
          <mxGeometry y="30" width="210" height="30" as="geometry" />
        </mxCell>
        <mxCell id="Pmj5LaugIKf1HsN2zF1F-52" value="&lt;b&gt;POST&amp;nbsp;&lt;/b&gt;&lt;a style=&quot;color: rgb(0, 82, 204); text-decoration: var(--aui-link-hover-decoration); font-family: -apple-system, BlinkMacSystemFont, &amp;quot;Segoe UI&amp;quot;, Roboto, Oxygen, Ubuntu, &amp;quot;Fira Sans&amp;quot;, &amp;quot;Droid Sans&amp;quot;, &amp;quot;Helvetica Neue&amp;quot;, sans-serif; font-size: 14px; text-align: left;&quot; rel=&quot;nofollow&quot; class=&quot;external-link&quot; href=&quot;https://uops-app.api.ulinedm.com/uops-app/swagger/index.html?url=https://dc2-svzdev03.ulinedm.com:11175/order-service/v1/v3/api-docs#/order-controller/submitOrder&quot;&gt;/order-service/v1/orders-and-shipments/{idempotent}&lt;/a&gt;&lt;br&gt;&lt;b&gt;&amp;nbsp;&lt;br&gt;&amp;nbsp;&lt;/b&gt;" style="shape=cylinder3;whiteSpace=wrap;html=1;boundedLbl=1;backgroundOutline=1;size=15;rounded=0;shadow=0;fontFamily=Helvetica;fontSize=12;fillColor=#d5e8d4;gradientColor=#97d077;strokeColor=#82b366;" parent="WIyWlLk6GJQsqaUBKTNV-1" vertex="1">
          <mxGeometry x="720" y="100" width="440" height="62.5" as="geometry" />
        </mxCell>
        <mxCell id="Pmj5LaugIKf1HsN2zF1F-53" style="edgeStyle=orthogonalEdgeStyle;rounded=0;orthogonalLoop=1;jettySize=auto;html=1;entryX=1.004;entryY=0.306;entryDx=0;entryDy=0;entryPerimeter=0;fontFamily=Helvetica;fontSize=12;fontColor=default;fillColor=#e6d0de;gradientColor=#d5739d;strokeColor=#000000;strokeWidth=2;" parent="WIyWlLk6GJQsqaUBKTNV-1" source="Pmj5LaugIKf1HsN2zF1F-3" target="Pmj5LaugIKf1HsN2zF1F-48" edge="1">
          <mxGeometry relative="1" as="geometry" />
        </mxCell>
        <mxCell id="Pmj5LaugIKf1HsN2zF1F-55" value="&lt;b&gt;GET&amp;nbsp;&lt;/b&gt;&lt;a style=&quot;color: rgb(0, 82, 204); text-decoration: var(--aui-link-decoration); font-family: -apple-system, BlinkMacSystemFont, &amp;quot;Segoe UI&amp;quot;, Roboto, Oxygen, Ubuntu, &amp;quot;Fira Sans&amp;quot;, &amp;quot;Droid Sans&amp;quot;, &amp;quot;Helvetica Neue&amp;quot;, sans-serif; font-size: 14px; text-align: left;&quot; rel=&quot;nofollow&quot; class=&quot;external-link&quot; href=&quot;https://uops-app.api.ulinedm.com/uops-app/swagger/index.html?url=https://dc2-svzdev05.ulinedm.com:11277/customer-validation-service/v1/v3/api-docs#/Customer%20Validation%20Controller/getCustomerValidationRecord&quot;&gt;/customer-validation-service/v1/customer-validation-request/{requestId}&lt;/a&gt;&lt;br&gt;&lt;b&gt;&amp;nbsp;&lt;br&gt;&amp;nbsp;&lt;/b&gt;" style="shape=cylinder3;whiteSpace=wrap;html=1;boundedLbl=1;backgroundOutline=1;size=15;rounded=0;shadow=0;fontFamily=Helvetica;fontSize=12;fillColor=#d5e8d4;gradientColor=#97d077;strokeColor=#82b366;" parent="WIyWlLk6GJQsqaUBKTNV-1" vertex="1">
          <mxGeometry x="720" y="360" width="500" height="80" as="geometry" />
        </mxCell>
        <mxCell id="Pmj5LaugIKf1HsN2zF1F-56" value="&lt;div style=&quot;text-align: center;&quot;&gt;&lt;b&gt;GET&amp;nbsp;&lt;/b&gt;&lt;a style=&quot;color: rgb(0, 82, 204); text-decoration: var(--aui-link-decoration); font-family: -apple-system, BlinkMacSystemFont, &amp;quot;Segoe UI&amp;quot;, Roboto, Oxygen, Ubuntu, &amp;quot;Fira Sans&amp;quot;, &amp;quot;Droid Sans&amp;quot;, &amp;quot;Helvetica Neue&amp;quot;, sans-serif; font-size: 14px; text-align: left;&quot; rel=&quot;nofollow&quot; class=&quot;external-link&quot; href=&quot;https://uops-app.api.ulinedm.com/uops-app/swagger/index.html?url=https://DC2-SVZDEV09.ulinedm.com:11289/order-integration-service/v1/v3/api-docs#/dse-to-legacy-integration-controller/getPostIntegrationNames&quot; title=&quot;&quot;&gt;/order-integration-service/v1/legacy-integration/post-integrations/names&lt;/a&gt;&lt;/div&gt;" style="shape=cylinder3;whiteSpace=wrap;html=1;boundedLbl=1;backgroundOutline=1;size=15;rounded=0;shadow=0;fontFamily=Helvetica;fontSize=12;fillColor=#d5e8d4;gradientColor=#97d077;strokeColor=#82b366;" parent="WIyWlLk6GJQsqaUBKTNV-1" vertex="1">
          <mxGeometry x="720" y="470" width="520" height="80" as="geometry" />
        </mxCell>
        <mxCell id="Pmj5LaugIKf1HsN2zF1F-57" value="&lt;div style=&quot;text-align: center;&quot;&gt;&lt;b&gt;GET&amp;nbsp;&lt;/b&gt;&lt;a style=&quot;background-color: initial; color: rgb(0, 82, 204); text-decoration: var(--aui-link-hover-decoration); font-family: -apple-system, BlinkMacSystemFont, &amp;quot;Segoe UI&amp;quot;, Roboto, Oxygen, Ubuntu, &amp;quot;Fira Sans&amp;quot;, &amp;quot;Droid Sans&amp;quot;, &amp;quot;Helvetica Neue&amp;quot;, sans-serif; font-size: 14px; text-align: left;&quot; rel=&quot;nofollow&quot; class=&quot;external-link&quot; href=&quot;https://uops-app.api.ulinedm.com/uops-app/swagger/index.html?url=https://DC2-SVZDEV10.ulinedm.com:11289/order-integration-service/v1/v3/api-docs#/dse-to-legacy-integration-controller/getLegacyIntegrationLogByOrderNumber&quot;&gt;/order-integration-service/v1/legacy-integration/logs/{orderNumber}&lt;/a&gt;&lt;/div&gt;" style="shape=cylinder3;whiteSpace=wrap;html=1;boundedLbl=1;backgroundOutline=1;size=15;rounded=0;shadow=0;fontFamily=Helvetica;fontSize=12;fillColor=#d5e8d4;gradientColor=#97d077;strokeColor=#82b366;" parent="WIyWlLk6GJQsqaUBKTNV-1" vertex="1">
          <mxGeometry x="720" y="590" width="470" height="80" as="geometry" />
        </mxCell>
        <mxCell id="Pmj5LaugIKf1HsN2zF1F-58" value="LegacyIntegrationServiceClientImpl" style="swimlane;fontStyle=0;childLayout=stackLayout;horizontal=1;startSize=30;horizontalStack=0;resizeParent=1;resizeParentMax=0;resizeLast=0;collapsible=1;marginBottom=0;rounded=0;shadow=0;labelBackgroundColor=none;fontFamily=Helvetica;fontSize=12;fillColor=#a20025;gradientDirection=south;html=0;strokeColor=#6F0000;fontColor=#ffffff;" parent="WIyWlLk6GJQsqaUBKTNV-1" vertex="1">
          <mxGeometry x="370" y="560" width="220" height="90" as="geometry" />
        </mxCell>
        <mxCell id="Pmj5LaugIKf1HsN2zF1F-59" value="getPostIntegrationNamesResponse()" style="text;strokeColor=#82b366;fillColor=#d5e8d4;align=left;verticalAlign=middle;spacingLeft=4;spacingRight=4;overflow=hidden;points=[[0,0.5],[1,0.5]];portConstraint=eastwest;rotatable=0;rounded=0;shadow=0;labelBackgroundColor=none;fontFamily=Helvetica;fontSize=12;html=0;gradientColor=#97d077;" parent="Pmj5LaugIKf1HsN2zF1F-58" vertex="1">
          <mxGeometry y="30" width="220" height="30" as="geometry" />
        </mxCell>
        <mxCell id="Pmj5LaugIKf1HsN2zF1F-60" value="getLegacyIntegrationLogResponse()" style="text;strokeColor=#82b366;fillColor=#d5e8d4;align=left;verticalAlign=middle;spacingLeft=4;spacingRight=4;overflow=hidden;points=[[0,0.5],[1,0.5]];portConstraint=eastwest;rotatable=0;rounded=0;shadow=0;labelBackgroundColor=none;fontFamily=Helvetica;fontSize=12;html=0;gradientColor=#97d077;" parent="Pmj5LaugIKf1HsN2zF1F-58" vertex="1">
          <mxGeometry y="60" width="220" height="30" as="geometry" />
        </mxCell>
        <mxCell id="Pmj5LaugIKf1HsN2zF1F-62" style="edgeStyle=orthogonalEdgeStyle;rounded=0;orthogonalLoop=1;jettySize=auto;html=1;entryX=1;entryY=0.194;entryDx=0;entryDy=0;entryPerimeter=0;fontFamily=Helvetica;fontSize=12;fontColor=default;fillColor=#f8cecc;gradientColor=#ea6b66;strokeColor=#000000;strokeWidth=2;" parent="WIyWlLk6GJQsqaUBKTNV-1" source="Pmj5LaugIKf1HsN2zF1F-3" target="Pmj5LaugIKf1HsN2zF1F-59" edge="1">
          <mxGeometry relative="1" as="geometry" />
        </mxCell>
        <mxCell id="Pmj5LaugIKf1HsN2zF1F-63" style="edgeStyle=orthogonalEdgeStyle;rounded=0;orthogonalLoop=1;jettySize=auto;html=1;entryX=0.007;entryY=0.647;entryDx=0;entryDy=0;entryPerimeter=0;fontFamily=Helvetica;fontSize=12;fontColor=default;strokeWidth=2;" parent="WIyWlLk6GJQsqaUBKTNV-1" source="Pmj5LaugIKf1HsN2zF1F-59" target="Pmj5LaugIKf1HsN2zF1F-56" edge="1">
          <mxGeometry relative="1" as="geometry">
            <Array as="points">
              <mxPoint x="710" y="605" />
              <mxPoint x="710" y="522" />
            </Array>
          </mxGeometry>
        </mxCell>
        <mxCell id="Pmj5LaugIKf1HsN2zF1F-64" style="edgeStyle=orthogonalEdgeStyle;rounded=0;orthogonalLoop=1;jettySize=auto;html=1;entryX=0;entryY=0.5;entryDx=0;entryDy=0;entryPerimeter=0;fontFamily=Helvetica;fontSize=12;fontColor=default;strokeWidth=2;" parent="WIyWlLk6GJQsqaUBKTNV-1" source="Pmj5LaugIKf1HsN2zF1F-60" target="Pmj5LaugIKf1HsN2zF1F-57" edge="1">
          <mxGeometry relative="1" as="geometry" />
        </mxCell>
        <mxCell id="Pmj5LaugIKf1HsN2zF1F-66" value="&lt;b&gt;PUT&amp;nbsp;&lt;/b&gt;&lt;a style=&quot;color: rgb(0, 82, 204); text-decoration: var(--aui-link-decoration); font-family: -apple-system, BlinkMacSystemFont, &amp;quot;Segoe UI&amp;quot;, Roboto, Oxygen, Ubuntu, &amp;quot;Fira Sans&amp;quot;, &amp;quot;Droid Sans&amp;quot;, &amp;quot;Helvetica Neue&amp;quot;, sans-serif; font-size: 14px; text-align: left;&quot; rel=&quot;nofollow&quot; class=&quot;external-link&quot; href=&quot;https://uops-app.api.ulinedm.com/uops-app/swagger/index.html?url=https://DC2-SVZDEV09.ulinedm.com:11289/order-integration-service/v1/v3/api-docs#/dse-to-legacy-integration-controller/updateIntegrationLogRecord&quot; title=&quot;&quot;&gt;/order-integration-service/v1/legacy-integration/logs&lt;/a&gt;&lt;br&gt;&lt;b&gt;&amp;nbsp;&lt;br&gt;&amp;nbsp;&lt;/b&gt;" style="shape=cylinder3;whiteSpace=wrap;html=1;boundedLbl=1;backgroundOutline=1;size=15;rounded=0;shadow=0;fontFamily=Helvetica;fontSize=12;fillColor=#d5e8d4;gradientColor=#97d077;strokeColor=#82b366;" parent="WIyWlLk6GJQsqaUBKTNV-1" vertex="1">
          <mxGeometry x="720" y="690" width="420" height="70" as="geometry" />
        </mxCell>
        <mxCell id="Pmj5LaugIKf1HsN2zF1F-67" value="&lt;span style=&quot;color: rgb(52, 55, 65); font-family: -apple-system, BlinkMacSystemFont, &amp;quot;Segoe UI&amp;quot;, Roboto, Oxygen, Ubuntu, &amp;quot;Fira Sans&amp;quot;, &amp;quot;Droid Sans&amp;quot;, &amp;quot;Helvetica Neue&amp;quot;, sans-serif; font-size: 14px; text-align: left;&quot;&gt;&lt;b&gt;GET&amp;nbsp;&lt;/b&gt;/&lt;/span&gt;&lt;a style=&quot;color: rgb(0, 82, 204); text-decoration: var(--aui-link-decoration); font-family: -apple-system, BlinkMacSystemFont, &amp;quot;Segoe UI&amp;quot;, Roboto, Oxygen, Ubuntu, &amp;quot;Fira Sans&amp;quot;, &amp;quot;Droid Sans&amp;quot;, &amp;quot;Helvetica Neue&amp;quot;, sans-serif; font-size: 14px; text-align: left;&quot; rel=&quot;nofollow&quot; href=&quot;https://uops-app.api.ulinedm.com/uops-app/swagger/index.html?url=https://dc2-svzdev03.ulinedm.com:11175/order-service/v1/v3/api-docs#/order-controller/searchOrders&quot; class=&quot;external-link&quot;&gt;order-service/v1/orders/{orderStatus}&lt;/a&gt;" style="shape=cylinder3;whiteSpace=wrap;html=1;boundedLbl=1;backgroundOutline=1;size=15;rounded=0;shadow=0;fontFamily=Helvetica;fontSize=12;fillColor=#d5e8d4;gradientColor=#97d077;strokeColor=#82b366;" parent="WIyWlLk6GJQsqaUBKTNV-1" vertex="1">
          <mxGeometry x="720" y="260" width="440" height="80" as="geometry" />
        </mxCell>
        <mxCell id="Pmj5LaugIKf1HsN2zF1F-68" value="&lt;span style=&quot;color: rgb(52, 55, 65); font-family: -apple-system, BlinkMacSystemFont, &amp;quot;Segoe UI&amp;quot;, Roboto, Oxygen, Ubuntu, &amp;quot;Fira Sans&amp;quot;, &amp;quot;Droid Sans&amp;quot;, &amp;quot;Helvetica Neue&amp;quot;, sans-serif; font-size: 14px; text-align: left;&quot;&gt;&lt;b&gt;PUT&amp;nbsp;&lt;/b&gt;/&lt;/span&gt;&lt;a style=&quot;color: rgb(0, 82, 204); text-decoration: var(--aui-link-decoration); font-family: -apple-system, BlinkMacSystemFont, &amp;quot;Segoe UI&amp;quot;, Roboto, Oxygen, Ubuntu, &amp;quot;Fira Sans&amp;quot;, &amp;quot;Droid Sans&amp;quot;, &amp;quot;Helvetica Neue&amp;quot;, sans-serif; font-size: 14px; text-align: left;&quot; rel=&quot;nofollow&quot; href=&quot;https://uops-app.api.ulinedm.com/uops-app/swagger/index.html?url=https://dc2-svzdev03.ulinedm.com:11175/order-service/v1/v3/api-docs#/order-controller/searchOrders&quot; class=&quot;external-link&quot;&gt;order-service/v1/orders/&lt;/a&gt;{orderNumber}/customer&lt;b&gt;&lt;br&gt;&lt;/b&gt;" style="shape=cylinder3;whiteSpace=wrap;html=1;boundedLbl=1;backgroundOutline=1;size=15;rounded=0;shadow=0;fontFamily=Helvetica;fontSize=12;fillColor=#fff2cc;gradientColor=#ffd966;strokeColor=#d6b656;" parent="WIyWlLk6GJQsqaUBKTNV-1" vertex="1">
          <mxGeometry x="720" y="172.5" width="440" height="67.5" as="geometry" />
        </mxCell>
        <mxCell id="Pmj5LaugIKf1HsN2zF1F-70" value="&lt;b&gt;GET&amp;nbsp;&lt;/b&gt;&lt;a style=&quot;color: rgb(0, 82, 204); text-decoration: var(--aui-link-decoration); font-family: -apple-system, BlinkMacSystemFont, &amp;quot;Segoe UI&amp;quot;, Roboto, Oxygen, Ubuntu, &amp;quot;Fira Sans&amp;quot;, &amp;quot;Droid Sans&amp;quot;, &amp;quot;Helvetica Neue&amp;quot;, sans-serif; font-size: 14px; text-align: left;&quot; rel=&quot;nofollow&quot; class=&quot;external-link&quot; href=&quot;https://uops-app.api.ulinedm.com/uops-app/swagger/index.html?url=https://DC2-SVZDEV09.ulinedm.com:11289/order-integration-service/v1/v3/api-docs#/dse-to-legacy-integration-controller/updateIntegrationLogRecord&quot; title=&quot;&quot;&gt;/order-integration-service/v1/legacy-integration/logs&lt;/a&gt;&lt;font style=&quot;font-size: 12px;&quot;&gt;/{statuses}&lt;/font&gt;&lt;br&gt;&lt;b&gt;&amp;nbsp;&lt;br&gt;&amp;nbsp;&lt;/b&gt;" style="shape=cylinder3;whiteSpace=wrap;html=1;boundedLbl=1;backgroundOutline=1;size=15;rounded=0;shadow=0;fontFamily=Helvetica;fontSize=12;fillColor=#d5e8d4;gradientColor=#97d077;strokeColor=#82b366;" parent="WIyWlLk6GJQsqaUBKTNV-1" vertex="1">
          <mxGeometry x="720" y="790" width="530" height="70" as="geometry" />
        </mxCell>
        <mxCell id="aDFRfC21otWUxn_7INtO-2" style="edgeStyle=orthogonalEdgeStyle;rounded=0;orthogonalLoop=1;jettySize=auto;html=1;entryX=0;entryY=0;entryDx=0;entryDy=45;entryPerimeter=0;dashed=1;strokeWidth=2;" edge="1" parent="WIyWlLk6GJQsqaUBKTNV-1" source="Pmj5LaugIKf1HsN2zF1F-71" target="Pmj5LaugIKf1HsN2zF1F-66">
          <mxGeometry relative="1" as="geometry">
            <Array as="points">
              <mxPoint x="700" y="665" />
              <mxPoint x="700" y="735" />
            </Array>
          </mxGeometry>
        </mxCell>
        <mxCell id="Pmj5LaugIKf1HsN2zF1F-71" value="updateLegacyIntegrationLogs()" style="text;strokeColor=#666666;fillColor=#f5f5f5;align=left;verticalAlign=middle;spacingLeft=4;spacingRight=4;overflow=hidden;points=[[0,0.5],[1,0.5]];portConstraint=eastwest;rotatable=0;rounded=0;shadow=0;labelBackgroundColor=none;fontFamily=Helvetica;fontSize=12;html=0;gradientColor=#b3b3b3;" parent="WIyWlLk6GJQsqaUBKTNV-1" vertex="1">
          <mxGeometry x="370" y="650" width="220" height="30" as="geometry" />
        </mxCell>
        <mxCell id="aDFRfC21otWUxn_7INtO-1" style="edgeStyle=orthogonalEdgeStyle;rounded=0;orthogonalLoop=1;jettySize=auto;html=1;strokeWidth=2;dashed=1;entryX=0;entryY=0.5;entryDx=0;entryDy=0;entryPerimeter=0;" edge="1" parent="WIyWlLk6GJQsqaUBKTNV-1" source="Pmj5LaugIKf1HsN2zF1F-72" target="Pmj5LaugIKf1HsN2zF1F-52">
          <mxGeometry relative="1" as="geometry" />
        </mxCell>
        <mxCell id="Pmj5LaugIKf1HsN2zF1F-72" value="updateOrderInformation()" style="text;strokeColor=#666666;fillColor=#f5f5f5;align=left;verticalAlign=middle;spacingLeft=4;spacingRight=4;overflow=hidden;points=[[0,0.5],[1,0.5]];portConstraint=eastwest;rotatable=0;rounded=0;shadow=0;labelBackgroundColor=none;fontFamily=Helvetica;fontSize=12;html=0;gradientColor=#b3b3b3;" parent="WIyWlLk6GJQsqaUBKTNV-1" vertex="1">
          <mxGeometry x="350" y="240" width="210" height="30" as="geometry" />
        </mxCell>
        <mxCell id="aDFRfC21otWUxn_7INtO-3" style="edgeStyle=orthogonalEdgeStyle;rounded=0;orthogonalLoop=1;jettySize=auto;html=1;entryX=-0.005;entryY=0.44;entryDx=0;entryDy=0;entryPerimeter=0;dashed=1;strokeWidth=2;" edge="1" parent="WIyWlLk6GJQsqaUBKTNV-1" source="aDFRfC21otWUxn_7INtO-0" target="Pmj5LaugIKf1HsN2zF1F-67">
          <mxGeometry relative="1" as="geometry" />
        </mxCell>
        <mxCell id="aDFRfC21otWUxn_7INtO-0" value="getOrderByStatus()" style="text;strokeColor=#666666;fillColor=#f5f5f5;align=left;verticalAlign=middle;spacingLeft=4;spacingRight=4;overflow=hidden;points=[[0,0.5],[1,0.5]];portConstraint=eastwest;rotatable=0;rounded=0;shadow=0;labelBackgroundColor=none;fontFamily=Helvetica;fontSize=12;html=0;gradientColor=#b3b3b3;" vertex="1" parent="WIyWlLk6GJQsqaUBKTNV-1">
          <mxGeometry x="350" y="270" width="210" height="30" as="geometry" />
        </mxCell>
        <mxCell id="aDFRfC21otWUxn_7INtO-5" style="edgeStyle=orthogonalEdgeStyle;rounded=0;orthogonalLoop=1;jettySize=auto;html=1;entryX=0;entryY=0.5;entryDx=0;entryDy=0;entryPerimeter=0;fontSize=14;fontColor=#0000FF;strokeWidth=2;" edge="1" parent="WIyWlLk6GJQsqaUBKTNV-1" source="Pmj5LaugIKf1HsN2zF1F-14" target="Pmj5LaugIKf1HsN2zF1F-68">
          <mxGeometry relative="1" as="geometry" />
        </mxCell>
        <mxCell id="aDFRfC21otWUxn_7INtO-8" style="edgeStyle=orthogonalEdgeStyle;rounded=0;orthogonalLoop=1;jettySize=auto;html=1;entryX=0;entryY=0;entryDx=0;entryDy=52.5;entryPerimeter=0;fontSize=12;fontColor=#000000;strokeWidth=2;dashed=1;" edge="1" parent="WIyWlLk6GJQsqaUBKTNV-1" source="aDFRfC21otWUxn_7INtO-7" target="Pmj5LaugIKf1HsN2zF1F-70">
          <mxGeometry relative="1" as="geometry" />
        </mxCell>
        <mxCell id="aDFRfC21otWUxn_7INtO-7" value="getIntegrationLogByStatus()" style="text;strokeColor=#666666;fillColor=#f5f5f5;align=left;verticalAlign=middle;spacingLeft=4;spacingRight=4;overflow=hidden;points=[[0,0.5],[1,0.5]];portConstraint=eastwest;rotatable=0;labelBackgroundColor=none;fontSize=12;gradientColor=#b3b3b3;" vertex="1" parent="WIyWlLk6GJQsqaUBKTNV-1">
          <mxGeometry x="370" y="680" width="220" height="30" as="geometry" />
        </mxCell>
        <mxCell id="aDFRfC21otWUxn_7INtO-23" style="edgeStyle=orthogonalEdgeStyle;rounded=0;orthogonalLoop=1;jettySize=auto;html=1;entryX=0;entryY=0.5;entryDx=0;entryDy=0;dashed=1;fontSize=12;fontColor=#000000;strokeWidth=2;" edge="1" parent="WIyWlLk6GJQsqaUBKTNV-1" source="aDFRfC21otWUxn_7INtO-14" target="Pmj5LaugIKf1HsN2zF1F-43">
          <mxGeometry relative="1" as="geometry" />
        </mxCell>
        <mxCell id="aDFRfC21otWUxn_7INtO-14" value="getCustomerValidationRequest()" style="text;strokeColor=#666666;fillColor=#f5f5f5;align=left;verticalAlign=middle;spacingLeft=4;spacingRight=4;overflow=hidden;points=[[0,0.5],[1,0.5]];portConstraint=eastwest;rotatable=0;labelBackgroundColor=none;fontSize=12;gradientColor=#b3b3b3;" vertex="1" parent="WIyWlLk6GJQsqaUBKTNV-1">
          <mxGeometry x="40" y="290" width="210" height="30" as="geometry" />
        </mxCell>
        <mxCell id="aDFRfC21otWUxn_7INtO-21" style="edgeStyle=orthogonalEdgeStyle;rounded=0;orthogonalLoop=1;jettySize=auto;html=1;entryX=0;entryY=0.5;entryDx=0;entryDy=0;dashed=1;fontSize=12;fontColor=#000000;strokeWidth=2;" edge="1" parent="WIyWlLk6GJQsqaUBKTNV-1" source="aDFRfC21otWUxn_7INtO-15" target="Pmj5LaugIKf1HsN2zF1F-72">
          <mxGeometry relative="1" as="geometry" />
        </mxCell>
        <mxCell id="aDFRfC21otWUxn_7INtO-15" value="updateOrderInformation()" style="text;strokeColor=#666666;fillColor=#f5f5f5;align=left;verticalAlign=middle;spacingLeft=4;spacingRight=4;overflow=hidden;points=[[0,0.5],[1,0.5]];portConstraint=eastwest;rotatable=0;labelBackgroundColor=none;fontSize=12;gradientColor=#b3b3b3;" vertex="1" parent="WIyWlLk6GJQsqaUBKTNV-1">
          <mxGeometry x="40" y="320" width="210" height="30" as="geometry" />
        </mxCell>
        <mxCell id="aDFRfC21otWUxn_7INtO-22" style="edgeStyle=orthogonalEdgeStyle;rounded=0;orthogonalLoop=1;jettySize=auto;html=1;entryX=-0.005;entryY=0.733;entryDx=0;entryDy=0;entryPerimeter=0;dashed=1;fontSize=12;fontColor=#000000;strokeWidth=2;" edge="1" parent="WIyWlLk6GJQsqaUBKTNV-1" source="aDFRfC21otWUxn_7INtO-17" target="aDFRfC21otWUxn_7INtO-0">
          <mxGeometry relative="1" as="geometry" />
        </mxCell>
        <mxCell id="aDFRfC21otWUxn_7INtO-17" value="getOrderByStatus()" style="text;strokeColor=#666666;fillColor=#f5f5f5;align=left;verticalAlign=middle;spacingLeft=4;spacingRight=4;overflow=hidden;points=[[0,0.5],[1,0.5]];portConstraint=eastwest;rotatable=0;labelBackgroundColor=none;fontSize=12;gradientColor=#b3b3b3;" vertex="1" parent="WIyWlLk6GJQsqaUBKTNV-1">
          <mxGeometry x="40" y="350" width="210" height="30" as="geometry" />
        </mxCell>
        <mxCell id="aDFRfC21otWUxn_7INtO-24" style="edgeStyle=orthogonalEdgeStyle;rounded=0;orthogonalLoop=1;jettySize=auto;html=1;entryX=0;entryY=0.5;entryDx=0;entryDy=0;dashed=1;fontSize=12;fontColor=#000000;strokeWidth=2;" edge="1" parent="WIyWlLk6GJQsqaUBKTNV-1" source="aDFRfC21otWUxn_7INtO-18" target="Pmj5LaugIKf1HsN2zF1F-71">
          <mxGeometry relative="1" as="geometry" />
        </mxCell>
        <mxCell id="aDFRfC21otWUxn_7INtO-18" value="updateLegacyIntegrationLogs()" style="text;strokeColor=#666666;fillColor=#f5f5f5;align=left;verticalAlign=middle;spacingLeft=4;spacingRight=4;overflow=hidden;points=[[0,0.5],[1,0.5]];portConstraint=eastwest;rotatable=0;labelBackgroundColor=none;fontSize=12;gradientColor=#b3b3b3;" vertex="1" parent="WIyWlLk6GJQsqaUBKTNV-1">
          <mxGeometry x="40" y="380" width="210" height="30" as="geometry" />
        </mxCell>
        <mxCell id="aDFRfC21otWUxn_7INtO-25" style="edgeStyle=orthogonalEdgeStyle;rounded=0;orthogonalLoop=1;jettySize=auto;html=1;entryX=0;entryY=0.5;entryDx=0;entryDy=0;dashed=1;fontSize=12;fontColor=#000000;strokeWidth=2;" edge="1" parent="WIyWlLk6GJQsqaUBKTNV-1" source="aDFRfC21otWUxn_7INtO-19" target="aDFRfC21otWUxn_7INtO-7">
          <mxGeometry relative="1" as="geometry" />
        </mxCell>
        <mxCell id="aDFRfC21otWUxn_7INtO-19" value="getIntegrationLogsByStatus" style="text;strokeColor=#666666;fillColor=#f5f5f5;align=left;verticalAlign=middle;spacingLeft=4;spacingRight=4;overflow=hidden;points=[[0,0.5],[1,0.5]];portConstraint=eastwest;rotatable=0;labelBackgroundColor=none;fontSize=12;gradientColor=#b3b3b3;" vertex="1" parent="WIyWlLk6GJQsqaUBKTNV-1">
          <mxGeometry x="40" y="410" width="210" height="30" as="geometry" />
        </mxCell>
        <mxCell id="aDFRfC21otWUxn_7INtO-26" style="edgeStyle=orthogonalEdgeStyle;rounded=0;orthogonalLoop=1;jettySize=auto;html=1;entryX=0;entryY=0.5;entryDx=0;entryDy=0;dashed=1;fontSize=12;fontColor=#000000;strokeWidth=2;" edge="1" parent="WIyWlLk6GJQsqaUBKTNV-1" source="aDFRfC21otWUxn_7INtO-20" target="Pmj5LaugIKf1HsN2zF1F-60">
          <mxGeometry relative="1" as="geometry" />
        </mxCell>
        <mxCell id="aDFRfC21otWUxn_7INtO-20" value="getIntegrationLogsByOrderNumber" style="text;strokeColor=#666666;fillColor=#f5f5f5;align=left;verticalAlign=middle;spacingLeft=4;spacingRight=4;overflow=hidden;points=[[0,0.5],[1,0.5]];portConstraint=eastwest;rotatable=0;labelBackgroundColor=none;fontSize=12;gradientColor=#b3b3b3;" vertex="1" parent="WIyWlLk6GJQsqaUBKTNV-1">
          <mxGeometry x="40" y="440" width="210" height="30" as="geometry" />
        </mxCell>
        <mxCell id="aDFRfC21otWUxn_7INtO-29" style="edgeStyle=orthogonalEdgeStyle;rounded=0;orthogonalLoop=1;jettySize=auto;html=1;entryX=0;entryY=0.5;entryDx=0;entryDy=0;dashed=1;fontSize=12;fontColor=#000000;strokeWidth=2;" edge="1" parent="WIyWlLk6GJQsqaUBKTNV-1" source="aDFRfC21otWUxn_7INtO-27" target="Pmj5LaugIKf1HsN2zF1F-59">
          <mxGeometry relative="1" as="geometry" />
        </mxCell>
        <mxCell id="aDFRfC21otWUxn_7INtO-27" value="getPostIntegrationNamesResponse()" style="text;strokeColor=#666666;fillColor=#f5f5f5;align=left;verticalAlign=middle;spacingLeft=4;spacingRight=4;overflow=hidden;points=[[0,0.5],[1,0.5]];portConstraint=eastwest;rotatable=0;labelBackgroundColor=none;fontSize=12;gradientColor=#b3b3b3;" vertex="1" parent="WIyWlLk6GJQsqaUBKTNV-1">
          <mxGeometry x="40" y="470" width="210" height="30" as="geometry" />
        </mxCell>
      </root>
    </mxGraphModel>
  </diagram>
</mxfile>
